<svg xmlns="http://www.w3.org/2000/svg" width="107.163" height="107.163" viewBox="0 0 107.163 107.163"><defs><style>.a{fill:#eec07b;}</style></defs><path class="a" d="M80.372,13.4a24.6,24.6,0,0,0-3.565.3,26.546,26.546,0,0,0-46.452,0,24.6,24.6,0,0,0-3.565-.3A26.819,26.819,0,0,0,0,40.186,26.516,26.516,0,0,0,13.4,63.307V97.116a10.057,10.057,0,0,0,10.047,10.047H83.721A10.057,10.057,0,0,0,93.768,97.116V63.307a26.516,26.516,0,0,0,13.4-23.121A26.819,26.819,0,0,0,80.372,13.4Zm3.349,87.07H23.442a3.353,3.353,0,0,1-3.349-3.349V87.07H87.07V97.116A3.353,3.353,0,0,1,83.721,100.465Zm5.252-42.2a3.354,3.354,0,0,0-1.9,3.022V80.372H20.093V61.287a3.354,3.354,0,0,0-1.9-3.022,20.044,20.044,0,0,1,8.6-38.171c.285,0,.624.1.915.115a26.5,26.5,0,0,0-.915,6.582,3.349,3.349,0,0,0,6.7,0,20.093,20.093,0,0,1,40.186,0,3.349,3.349,0,0,0,6.7,0,26.5,26.5,0,0,0-.915-6.582c.292-.015.631-.115.915-.115a20.044,20.044,0,0,1,8.6,38.171Z"/></svg>