<svg xmlns="http://www.w3.org/2000/svg" width="208.417" height="207" viewBox="0 0 208.417 207"><defs><style>.a{isolation:isolate;}.b{fill:#eec07b;}</style></defs><g class="a" transform="translate(0 -0.499)"><path class="b" d="M188.132,87.006l12.236-.777.065,0A28.8,28.8,0,0,0,221.91,73.666l9.673-14.217a57.448,57.448,0,0,0,9.182-42.093A12.93,12.93,0,0,0,228.642,6.59a57.193,57.193,0,0,0-40.615,14.179L175.1,32.094a28.888,28.888,0,0,0-9.872,22.865c0,.021,0,.043,0,.065l.7,12.261a17.274,17.274,0,0,1-4.791,12.931L60.114,184.176a14.719,14.719,0,0,0-3.931,10.914,16.888,16.888,0,0,0,17.1,16.433q.672,0,1.343-.054a14.673,14.673,0,0,0,10.36-5.235l90.9-112.906a17.223,17.223,0,0,1,12.247-6.322Zm-17.1,2.388-90.89,112.9a8.492,8.492,0,0,1-6.013,2.946,10.669,10.669,0,0,1-11.707-10.4,8.508,8.508,0,0,1,2.182-6.316L165.617,84.569a23.56,23.56,0,0,0,6.543-17.639l-.7-12.229a22.657,22.657,0,0,1,7.743-17.9l12.931-11.325a51.023,51.023,0,0,1,36.209-12.641A6.687,6.687,0,0,1,234.61,18.4a51.213,51.213,0,0,1-8.186,37.524l-9.673,14.219A22.593,22.593,0,0,1,199.94,79.99l-12.2.774a23.49,23.49,0,0,0-16.7,8.63Zm0,0" transform="translate(-33.169 -4.024)"/><path class="b" d="M374.311,349.379l-67.7-61.665a3.12,3.12,0,1,0-4.2,4.614l67.686,61.651a8.493,8.493,0,0,1,2.573,6.175A10.66,10.66,0,0,1,361.6,371.212a8.485,8.485,0,0,1-6.159-2.555l-60.329-66.234a3.12,3.12,0,1,0-4.614,4.2l60.344,66.25a14.673,14.673,0,0,0,10.636,4.577c.11,0,.218,0,.327,0A16.891,16.891,0,0,0,378.9,360.031a14.687,14.687,0,0,0-4.592-10.652Zm0,0" transform="translate(-171.488 -169.956)"/><path class="b" d="M37.653,82.663A28.9,28.9,0,0,0,56.548,90.3c.022,0,.044,0,.065,0l12.255.038A17.212,17.212,0,0,1,81.459,95.9l5.4,5.926a3.12,3.12,0,1,0,4.614-4.2l-5.406-5.934A23.481,23.481,0,0,0,68.888,84.1l-12.221-.038A22.673,22.673,0,0,1,42.022,78.2L6.509,35.986A1.078,1.078,0,0,1,8.1,34.53L40.421,66.857a8.2,8.2,0,0,0,11.591,0l3.8-3.8v0l6.745-6.745a0,0,0,0,0,0,0l0,0,3.8-3.8a8.205,8.205,0,0,0,0-11.591L34.03,8.594a1.078,1.078,0,0,1,1.456-1.587L77.7,42.523a22.663,22.663,0,0,1,5.86,14.643L83.6,69.389a23.5,23.5,0,0,0,7.593,17.184l5.784,5.268a3.12,3.12,0,1,0,4.2-4.614l-5.775-5.26a17.225,17.225,0,0,1-5.563-12.6L89.8,57.114c0-.022,0-.044,0-.067a28.9,28.9,0,0,0-7.639-18.895,3.119,3.119,0,0,0-.286-.275L39.5,2.232a7.318,7.318,0,0,0-9.885,10.774L61.945,45.334a1.957,1.957,0,0,1,0,2.765l-1.593,1.591L24.323,13.664a3.12,3.12,0,0,0-4.412,4.412L55.94,54.1,53.6,56.437,17.577,20.41a3.12,3.12,0,0,0-4.412,4.412L49.191,60.851,47.6,62.444a1.957,1.957,0,0,1-2.765,0L12.507,30.118A7.318,7.318,0,0,0,1.733,40L37.38,82.377a2.9,2.9,0,0,0,.273.286Zm0,0"/></g></svg>