<svg xmlns="http://www.w3.org/2000/svg" xmlns:xlink="http://www.w3.org/1999/xlink" width="3473.71" height="3571.933" viewBox="0 0 3473.71 3571.933"><defs><style>.a,.b{fill:#ffa219;}.a{opacity:0.59;}.c{fill:#efb358;}.d{filter:url(#a);}</style><filter id="a" x="1862.203" y="2246.579" width="642" height="642" filterUnits="userSpaceOnUse"><feOffset dy="6" input="SourceAlpha"/><feGaussianBlur stdDeviation="20" result="b"/><feFlood flood-color="#221f1f" flood-opacity="0.2"/><feComposite operator="in" in2="b"/><feComposite in="SourceGraphic"/></filter></defs><g transform="translate(419.733 2501.579)"><path class="a" d="M785.482-2225.7-275.65-949.327c-220.082,264.724-184,657.713,80.594,877.766L971.18,898.359c264.593,220.053,657.5,183.84,877.582-80.883L2909.894-458.9c220.082-264.723,184-657.713-80.594-877.766l-1166.236-969.92C1398.471-2526.636,1005.564-2490.424,785.482-2225.7Z" transform="translate(0 28)"/><path class="b" d="M785.482-2225.7-275.65-949.327c-220.082,264.724-184,657.713,80.594,877.766L971.18,898.359c264.593,220.053,657.5,183.84,877.582-80.883L2909.894-458.9c220.082-264.723,184-657.713-80.594-877.766l-1166.236-969.92C1398.471-2526.636,1005.564-2490.424,785.482-2225.7Z" transform="translate(0 -51)"/><g class="d" transform="matrix(1, 0, 0, 1, -419.73, -2501.58)"><circle class="c" cx="261" cy="261" r="261" transform="translate(1922.2 2300.58)"/></g></g></svg>